<mxfile host="app.diagrams.net" modified="2023-10-24T15:58:42.428Z" agent="Mozilla/5.0 (Macintosh; Intel Mac OS X 10_15_7) AppleWebKit/537.36 (KHTML, like Gecko) Chrome/118.0.0.0 Safari/537.36" version="22.0.6" etag="SY5m1ULd4-NCr1vxSrzt" type="github">
  <diagram name="Page-1" id="kGbm2p-zw94cqT5bh2l-">
    <mxGraphModel>
      <root>
        <mxCell id="0" />
        <mxCell id="1" parent="0" />
      </root>
    </mxGraphModel>
  </diagram>
</mxfile>
